<svg id="Capa_1" data-name="Capa 1" xmlns="http://www.w3.org/2000/svg" viewBox="0 0 1080 1080"><defs><style>.cls-1{fill:#f7931e;}.cls-2{fill:#3f3f3f;}</style></defs><title>QRestarurant</title><path class="cls-1" d="M140.47,830.91a56,56,0,0,1-30.65,8.92c-31.09,0-54.12-23.17-54.12-52.1v-.28c0-28.93,23.32-52.39,54.4-52.39s54.12,23.17,54.12,52.1v.29a50.27,50.27,0,0,1-8.92,28.92l10.36,8.78-14.11,15.69Zm-20.15-17.7-14-12,14.11-15.83,13.67,12.38a27.47,27.47,0,0,0,1.73-9.79v-.29c0-14.68-10.51-27.48-26.05-27.48-15.26,0-25.48,12.66-25.48,27.2v.28c0,14.54,10.37,27.35,25.76,27.35A28.7,28.7,0,0,0,120.32,813.21Z"/><path class="cls-1" d="M218.76,737.07h47.63c15.4,0,26.05,4,32.82,10.94,5.9,5.76,8.92,13.53,8.92,23.46v.29c0,15.4-8.2,25.62-20.72,30.94l24,35.12H279.2l-20.29-30.51H246.68v30.51H218.76Zm46.34,48.36c9.5,0,15-4.61,15-11.94v-.29c0-7.92-5.76-12-15.11-12H246.68v24.18Z"/><path class="cls-2" d="M320.08,800.11v-.29c0-21.73,15.4-39.57,37.13-39.57,24.18,0,36.41,19,36.41,40.87,0,1.58-.14,3.17-.29,4.89H337.49c1.88,12.38,10.65,19.29,21.88,19.29,8.49,0,14.54-3.17,20.58-9.07l10.22,9.07c-7.2,8.63-17.13,14.25-31.09,14.25C337.06,839.55,320.08,823.57,320.08,800.11Zm56.27-5.61c-1.15-11.23-7.77-20-19.28-20-10.65,0-18.14,8.21-19.72,20Z"/><path class="cls-2" d="M405,827.89l7.77-11.8c8.21,6.18,17.13,9.35,24.9,9.35,7.48,0,11.8-3.17,11.8-8.2V817c0-5.9-8.06-7.92-17-10.65-11.23-3.17-23.75-7.77-23.75-22.31v-.29c0-14.39,11.95-23.17,27.06-23.17a52.64,52.64,0,0,1,27.92,8.64l-6.91,12.38c-7.34-4.47-15.11-7.2-21.44-7.2-6.77,0-10.65,3.17-10.65,7.63v.29c0,5.46,8.2,7.77,17.12,10.65,11.09,3.45,23.61,8.49,23.61,22.16v.29c0,16-12.38,23.89-28.21,23.89A53.42,53.42,0,0,1,405,827.89Z"/><path class="cls-2" d="M485.3,816.81v-40h-9.64v-15h9.64V741h17.42v20.87h20.43v15H502.72v37.27c0,6.77,3.45,9.5,9.35,9.5A23.33,23.33,0,0,0,522.86,821v14.25a30.42,30.42,0,0,1-15.68,3.88C494.37,839.11,485.3,833.5,485.3,816.81Z"/><path class="cls-2" d="M587.2,837.82v-9.36c-5.19,6.19-13.1,10.94-24.61,10.94-14.4,0-27.06-8.2-27.06-23.46v-.28c0-16.84,13.09-24.9,30.8-24.9a64,64,0,0,1,21,3.16v-1.44c0-10.5-6.62-16.26-18.71-16.26-8.49,0-14.82,1.87-21.73,4.75l-4.75-14a65.2,65.2,0,0,1,28.93-6.33c22.45,0,33.39,11.8,33.39,32.09v45.05Zm.43-31.81a49.91,49.91,0,0,0-17.42-3c-10.93,0-17.41,4.46-17.41,11.8v.29c0,7.19,6.48,11.22,14.68,11.22,11.51,0,20.15-6.47,20.15-16Z"/><path class="cls-2" d="M624.33,810.19V761.83h17.41V805c0,11.8,5.91,18.56,16.27,18.56,10.07,0,17.12-7.05,17.12-18.85V761.83h17.42v76H675.13V826c-4.89,7.19-11.94,13.38-23.74,13.38C634.26,839.4,624.33,827.89,624.33,810.19Z"/><path class="cls-2" d="M714.42,761.83h17.42V779c4.75-11.38,13.53-19.15,26.91-18.57v18.42h-1c-15.25,0-25.9,9.93-25.9,30.08v28.93H714.42Z"/><path class="cls-2" d="M816.75,837.82v-9.36c-5.18,6.19-13.1,10.94-24.61,10.94-14.39,0-27-8.2-27-23.46v-.28c0-16.84,13.09-24.9,30.8-24.9a64,64,0,0,1,21,3.16v-1.44c0-10.5-6.62-16.26-18.71-16.26-8.5,0-14.83,1.87-21.73,4.75l-4.75-14a65.15,65.15,0,0,1,28.92-6.33c22.45,0,33.39,11.8,33.39,32.09v45.05Zm.43-31.81a49.9,49.9,0,0,0-17.41-3c-10.94,0-17.41,4.46-17.41,11.8v.29c0,7.19,6.47,11.22,14.68,11.22,11.51,0,20.14-6.47,20.14-16Z"/><path class="cls-2" d="M854.75,761.83h17.42v11.8c4.89-7.2,11.94-13.38,23.74-13.38,17.13,0,27.06,11.51,27.06,29.21v48.36H905.56V794.64c0-11.8-5.91-18.56-16.27-18.56-10.07,0-17.12,7-17.12,18.85v42.89H854.75Z"/><path class="cls-2" d="M947.58,816.81v-40h-9.64v-15h9.64V741H965v20.87h20.43v15H965v37.27c0,6.77,3.45,9.5,9.35,9.5A23.33,23.33,0,0,0,985.14,821v14.25a30.42,30.42,0,0,1-15.68,3.88C956.65,839.11,947.58,833.5,947.58,816.81Z"/><rect class="cls-2" x="640.04" y="294.8" width="63.48" height="63.48"/><path class="cls-1" d="M758.32,413.07H585.24V240H758.32ZM606.63,391.68h130.3V261.39H606.63Z"/><rect class="cls-2" x="378.77" y="294.8" width="63.48" height="63.48"/><path class="cls-1" d="M497,413.07H324V240H497ZM345.36,391.68h130.3V261.39H345.36Z"/><rect class="cls-2" x="378.77" y="557.14" width="63.48" height="63.48"/><path class="cls-1" d="M497,675.41H324V502.34H497ZM345.36,654h130.3V523.73H345.36Z"/><path class="cls-1" d="M604.19,536.41V518.19H586V463.53h18.22V445.31h54.66v18.22h18.22v72.88Zm36.44-18.22V500h18.22V463.53H604.19v54.66Z"/><path class="cls-1" d="M684.9,536.41V463.53h58.31V478.1h14.58v14.58H743.21v29.15h14.58v14.58H743.21V521.83H728.63V507.26H699.48v29.15Zm58.31-43.73V478.1H699.48v14.58Z"/><rect class="cls-2" x="526.42" y="292.46" width="31.07" height="120.61"/><rect class="cls-2" x="526.42" y="240" width="31.07" height="31.07"/><rect class="cls-2" x="526.42" y="502.34" width="31.07" height="120.61" transform="translate(1083.91 1125.29) rotate(180)"/><rect class="cls-2" x="526.42" y="644.34" width="31.07" height="31.07" transform="translate(1083.91 1319.75) rotate(180)"/><rect class="cls-2" x="653.06" y="485.88" width="31.07" height="173.59" transform="translate(95.92 1241.27) rotate(-90)"/><rect class="cls-2" x="581.8" y="600.74" width="31.07" height="31.07" transform="translate(1194.68 1232.55) rotate(180)"/><rect class="cls-2" x="622.48" y="600.74" width="31.07" height="31.07" transform="translate(1276.03 1232.55) rotate(180)"/><rect class="cls-2" x="693.64" y="570.06" width="31.07" height="92.43" transform="translate(92.91 1325.45) rotate(-90)"/><rect class="cls-2" x="466.23" y="445.3" width="31.07" height="31.07"/><rect class="cls-2" x="425.55" y="445.3" width="31.07" height="31.07"/><rect class="cls-2" x="354.39" y="414.63" width="31.07" height="92.43" transform="translate(830.77 90.92) rotate(90)"/><rect class="cls-2" x="724.32" y="644.34" width="31.07" height="31.07"/><rect class="cls-2" x="683.64" y="644.34" width="31.07" height="31.07"/><rect class="cls-2" x="612.48" y="613.66" width="31.07" height="92.43" transform="translate(1287.89 31.86) rotate(90)"/><rect class="cls-2" x="526.42" y="445.84" width="31.07" height="30.01" transform="translate(81.11 1002.8) rotate(-90)"/><rect class="cls-1" x="172" y="783" width="37" height="14"/></svg>