<?xml version="1.0" encoding="utf-8"?>
<!-- Generator: Adobe Illustrator 24.2.1, SVG Export Plug-In . SVG Version: 6.00 Build 0)  -->
<svg version="1.1" id="Layer_1" xmlns="http://www.w3.org/2000/svg" xmlns:xlink="http://www.w3.org/1999/xlink" x="0px" y="0px"
	 viewBox="0 0 767.2 671.2" style="enable-background:new 0 0 767.2 671.2;" xml:space="preserve">
<style type="text/css">
	.st0{fill:#FB923A;}
</style>
<g>
	<rect x="487.8" y="426.1" class="st0" width="69.2" height="69.2"/>
	<rect x="339.6" y="272.4" class="st0" width="69.2" height="69.2"/>
	<g>
		<path class="st0" d="M190,559.3V73.1h-34.3h-18.3c-33.3,0-60.5,27.2-60.5,60.5v405.7c0,32.4,26.3,58.7,58.7,58.7h65.3
			C194,586.8,190,573.5,190,559.3z"/>
		<path class="st0" d="M615.1,73.1H549l75.2,134.5H555L479.8,73.1h-63.1l75.2,134.5h-69.2L347.5,73.1h-63.1l75.2,134.5h-69.2
			L222.9,87v472.2c0,17.7,11.1,32.8,26.7,38.8h1.8h323.9c39.1,0,70.7-31.7,70.7-70.7V207.6h44.2L615.1,73.1z M561.4,255.5
			L561.4,255.5c10.6,0,19.2,8.6,19.2,19.2c0,10.6-8.6,19.2-19.2,19.2l0,0c-10.6,0-19.2-8.6-19.2-19.2
			C542.2,264.1,550.8,255.5,561.4,255.5z M542.2,352.7c0-10.6,8.6-19.2,19.2-19.2l0,0c10.6,0,19.2,8.6,19.2,19.2l0,0
			c0,10.6-8.6,19.2-19.2,19.2l0,0C550.8,371.9,542.2,363.3,542.2,352.7L542.2,352.7z M503.2,313.7c0-10.6,8.6-19.2,19.2-19.2
			s19.2,8.6,19.2,19.2l0,0c0,10.6-8.6,19.2-19.2,19.2S503.2,324.3,503.2,313.7L503.2,313.7z M483.4,255.5c10.6,0,19.2,8.6,19.2,19.2
			c0,10.6-8.6,19.2-19.2,19.2s-19.2-8.6-19.2-19.2C464.2,264.1,472.8,255.5,483.4,255.5z M464.2,352.7c0-10.6,8.6-19.2,19.2-19.2
			s19.2,8.6,19.2,19.2l0,0c0,10.6-8.6,19.2-19.2,19.2S464.2,363.3,464.2,352.7L464.2,352.7z M335.2,512.1
			c-10.6,0-19.2-8.6-19.2-19.2s8.6-19.2,19.2-19.2s19.2,8.6,19.2,19.2S345.7,512.1,335.2,512.1z M354.3,415
			c0,10.6-8.6,19.2-19.2,19.2s-19.2-8.6-19.2-19.2l0,0c0-10.6,8.6-19.2,19.2-19.2S354.3,404.4,354.3,415L354.3,415z M393.3,453.9
			c0,10.6-8.6,19.2-19.2,19.2s-19.2-8.6-19.2-19.2l0,0c0-10.6,8.6-19.2,19.2-19.2S393.3,443.4,393.3,453.9L393.3,453.9z
			 M413.1,512.1L413.1,512.1c-10.6,0-19.2-8.6-19.2-19.2s8.6-19.2,19.2-19.2l0,0c10.6,0,19.2,8.6,19.2,19.2S423.7,512.1,413.1,512.1
			z M432.3,415c0,10.6-8.6,19.2-19.2,19.2l0,0c-10.6,0-19.2-8.6-19.2-19.2l0,0c0-10.6,8.6-19.2,19.2-19.2l0,0
			C423.7,395.8,432.3,404.4,432.3,415L432.3,415z M442.4,375.2H305.9V238.7h136.4v136.5H442.4z M590.6,528.9H454.2V392.5h136.4
			V528.9z"/>
	</g>
</g>
</svg>
