<?xml version="1.0" encoding="utf-8"?>
<!-- Generator: Adobe Illustrator 24.2.1, SVG Export Plug-In . SVG Version: 6.00 Build 0)  -->
<svg version="1.1" id="Layer_1" xmlns="http://www.w3.org/2000/svg" xmlns:xlink="http://www.w3.org/1999/xlink" x="0px" y="0px"
	 viewBox="0 0 734.3 688.8" style="enable-background:new 0 0 734.3 688.8;" xml:space="preserve">
<style type="text/css">
	.st0{fill:#FFFFFF;}
</style>
<g>
	<rect x="471.4" y="435" class="st0" width="69.2" height="69.2"/>
	<rect x="323.2" y="281.2" class="st0" width="69.2" height="69.2"/>
	<g>
		<path class="st0" d="M173.6,568.1V81.9h-34.3H121c-33.3,0-60.5,27.2-60.5,60.5v405.7c0,32.4,26.3,58.7,58.7,58.7h65.3
			C177.6,595.6,173.6,582.3,173.6,568.1z"/>
		<path class="st0" d="M598.7,81.9h-66.1l75.2,134.5h-69.2L463.4,81.9h-63.1l75.2,134.5h-69.2L331.1,81.9H268l75.2,134.5H274
			L206.6,95.9v472.2c0,17.7,11.1,32.8,26.7,38.8h1.8H559c39.1,0,70.7-31.7,70.7-70.7V216.4h44.2L598.7,81.9z M545,264.4L545,264.4
			c10.6,0,19.2,8.6,19.2,19.2c0,10.6-8.6,19.2-19.2,19.2l0,0c-10.6,0-19.2-8.6-19.2-19.2C525.8,272.9,534.4,264.4,545,264.4z
			 M525.8,361.5c0-10.6,8.6-19.2,19.2-19.2l0,0c10.6,0,19.2,8.6,19.2,19.2l0,0c0,10.6-8.6,19.2-19.2,19.2l0,0
			C534.4,380.7,525.8,372.1,525.8,361.5L525.8,361.5z M486.8,322.5c0-10.6,8.6-19.2,19.2-19.2s19.2,8.6,19.2,19.2l0,0
			c0,10.6-8.6,19.2-19.2,19.2S486.8,333.1,486.8,322.5L486.8,322.5z M467,264.4c10.6,0,19.2,8.6,19.2,19.2
			c0,10.6-8.6,19.2-19.2,19.2s-19.2-8.6-19.2-19.2C447.8,272.9,456.4,264.4,467,264.4z M447.8,361.5c0-10.6,8.6-19.2,19.2-19.2
			s19.2,8.6,19.2,19.2l0,0c0,10.6-8.6,19.2-19.2,19.2S447.8,372.1,447.8,361.5L447.8,361.5z M318.8,520.9
			c-10.6,0-19.2-8.6-19.2-19.2c0-10.6,8.6-19.2,19.2-19.2s19.2,8.6,19.2,19.2C338,512.3,329.4,520.9,318.8,520.9z M337.9,423.8
			c0,10.6-8.6,19.2-19.2,19.2s-19.2-8.6-19.2-19.2l0,0c0-10.6,8.6-19.2,19.2-19.2S337.9,413.2,337.9,423.8L337.9,423.8z
			 M376.9,462.8c0,10.6-8.6,19.2-19.2,19.2s-19.2-8.6-19.2-19.2l0,0c0-10.6,8.6-19.2,19.2-19.2S376.9,452.2,376.9,462.8L376.9,462.8
			z M396.7,520.9L396.7,520.9c-10.6,0-19.2-8.6-19.2-19.2c0-10.6,8.6-19.2,19.2-19.2l0,0c10.6,0,19.2,8.6,19.2,19.2
			C415.9,512.3,407.3,520.9,396.7,520.9z M415.9,423.8c0,10.6-8.6,19.2-19.2,19.2l0,0c-10.6,0-19.2-8.6-19.2-19.2l0,0
			c0-10.6,8.6-19.2,19.2-19.2l0,0C407.3,404.6,415.9,413.2,415.9,423.8L415.9,423.8z M426,384H289.5V247.5h136.4L426,384L426,384z
			 M574.2,537.8H437.8V401.4h136.4V537.8z"/>
	</g>
</g>
</svg>
