<?xml version="1.0" encoding="utf-8"?>
<!-- Generator: Adobe Illustrator 24.2.1, SVG Export Plug-In . SVG Version: 6.00 Build 0)  -->
<svg version="1.1" id="Layer_1" xmlns="http://www.w3.org/2000/svg" xmlns:xlink="http://www.w3.org/1999/xlink" x="0px" y="0px"
	 viewBox="0 0 2000 2000" style="enable-background:new 0 0 2000 2000;" xml:space="preserve">
<style type="text/css">
	.st0{fill:#FB923A;}
</style>
<g>
	<rect x="1104.2" y="1090.5" class="st0" width="69.2" height="69.2"/>
	<rect x="956" y="936.8" class="st0" width="69.2" height="69.2"/>
	<g>
		<path class="st0" d="M806.4,1223.7V737.5h-34.3h-18.3c-33.3,0-60.5,27.2-60.5,60.5v405.7c0,32.4,26.3,58.7,58.7,58.7h65.3
			C810.4,1251.2,806.4,1237.9,806.4,1223.7z"/>
		<path class="st0" d="M1231.5,737.5h-66.1l75.2,134.5h-69.2l-75.2-134.5h-63.1l75.2,134.5h-69.2l-75.2-134.5h-63.1L976,872h-69.2
			l-67.5-120.6v472.2c0,17.7,11.1,32.8,26.7,38.8h1.8h323.9c39.1,0,70.7-31.7,70.7-70.7V872h44.2L1231.5,737.5z M1177.8,919.9
			L1177.8,919.9c10.6,0,19.2,8.6,19.2,19.2c0,10.6-8.6,19.2-19.2,19.2h0c-10.6,0-19.2-8.6-19.2-19.2
			C1158.6,928.5,1167.2,919.9,1177.8,919.9z M1158.6,1017.1c0-10.6,8.6-19.2,19.2-19.2h0c10.6,0,19.2,8.6,19.2,19.2v0
			c0,10.6-8.6,19.2-19.2,19.2h0C1167.2,1036.3,1158.6,1027.7,1158.6,1017.1L1158.6,1017.1z M1119.6,978.1c0-10.6,8.6-19.2,19.2-19.2
			s19.2,8.6,19.2,19.2v0c0,10.6-8.6,19.2-19.2,19.2S1119.6,988.7,1119.6,978.1L1119.6,978.1z M1099.8,919.9
			c10.6,0,19.2,8.6,19.2,19.2c0,10.6-8.6,19.2-19.2,19.2s-19.2-8.6-19.2-19.2C1080.6,928.5,1089.2,919.9,1099.8,919.9z
			 M1080.6,1017.1c0-10.6,8.6-19.2,19.2-19.2s19.2,8.6,19.2,19.2v0c0,10.6-8.6,19.2-19.2,19.2S1080.6,1027.7,1080.6,1017.1
			L1080.6,1017.1z M951.6,1176.5c-10.6,0-19.2-8.6-19.2-19.2s8.6-19.2,19.2-19.2s19.2,8.6,19.2,19.2S962.1,1176.5,951.6,1176.5z
			 M970.7,1079.4c0,10.6-8.6,19.2-19.2,19.2s-19.2-8.6-19.2-19.2v0c0-10.6,8.6-19.2,19.2-19.2S970.7,1068.8,970.7,1079.4
			L970.7,1079.4z M1009.7,1118.3c0,10.6-8.6,19.2-19.2,19.2s-19.2-8.6-19.2-19.2v0c0-10.6,8.6-19.2,19.2-19.2
			S1009.7,1107.8,1009.7,1118.3L1009.7,1118.3z M1029.5,1176.5L1029.5,1176.5c-10.6,0-19.2-8.6-19.2-19.2s8.6-19.2,19.2-19.2h0
			c10.6,0,19.2,8.6,19.2,19.2S1040.1,1176.5,1029.5,1176.5z M1048.7,1079.4c0,10.6-8.6,19.2-19.2,19.2h0c-10.6,0-19.2-8.6-19.2-19.2
			v0c0-10.6,8.6-19.2,19.2-19.2h0C1040.1,1060.2,1048.7,1068.8,1048.7,1079.4L1048.7,1079.4z M1058.8,1039.6H922.3V903.1h136.4
			V1039.6z M1207,1193.3h-136.4v-136.4H1207V1193.3z"/>
	</g>
</g>
</svg>
