<?xml version="1.0" encoding="utf-8"?>
<!-- Generator: Adobe Illustrator 24.2.1, SVG Export Plug-In . SVG Version: 6.00 Build 0)  -->
<svg version="1.1" id="Layer_1" xmlns="http://www.w3.org/2000/svg" xmlns:xlink="http://www.w3.org/1999/xlink" x="0px" y="0px"
	 viewBox="0 0 2000 2000" style="enable-background:new 0 0 2000 2000;" xml:space="preserve">
<style type="text/css">
	.st0{fill:#878686;}
</style>
<g>
	<rect x="1109.8" y="1092.4" class="st0" width="69.2" height="69.2"/>
	<rect x="961.6" y="938.6" class="st0" width="69.2" height="69.2"/>
	<g>
		<path class="st0" d="M812,1225.5V739.3h-34.3h-18.3c-33.3,0-60.5,27.2-60.5,60.5v405.7c0,32.4,26.3,58.7,58.7,58.7h65.3
			C816,1253,812,1239.7,812,1225.5z"/>
		<path class="st0" d="M1237.1,739.3H1171l75.2,134.5h-69.2l-75.2-134.5h-63.1l75.2,134.5h-69.2l-75.2-134.5h-63.1l75.2,134.5h-69.2
			L845,753.3v472.2c0,17.7,11.1,32.8,26.7,38.8h1.8h323.9c39.1,0,70.7-31.7,70.7-70.7V873.8h44.2L1237.1,739.3z M1183.4,921.8
			L1183.4,921.8c10.6,0,19.2,8.6,19.2,19.2c0,10.6-8.6,19.2-19.2,19.2h0c-10.6,0-19.2-8.6-19.2-19.2
			C1164.2,930.3,1172.8,921.8,1183.4,921.8z M1164.2,1018.9c0-10.6,8.6-19.2,19.2-19.2h0c10.6,0,19.2,8.6,19.2,19.2v0
			c0,10.6-8.6,19.2-19.2,19.2h0C1172.8,1038.1,1164.2,1029.5,1164.2,1018.9L1164.2,1018.9z M1125.2,979.9c0-10.6,8.6-19.2,19.2-19.2
			s19.2,8.6,19.2,19.2v0c0,10.6-8.6,19.2-19.2,19.2S1125.2,990.5,1125.2,979.9L1125.2,979.9z M1105.4,921.8
			c10.6,0,19.2,8.6,19.2,19.2c0,10.6-8.6,19.2-19.2,19.2s-19.2-8.6-19.2-19.2C1086.2,930.3,1094.8,921.8,1105.4,921.8z
			 M1086.2,1018.9c0-10.6,8.6-19.2,19.2-19.2s19.2,8.6,19.2,19.2v0c0,10.6-8.6,19.2-19.2,19.2S1086.2,1029.5,1086.2,1018.9
			L1086.2,1018.9z M957.2,1178.3c-10.6,0-19.2-8.6-19.2-19.2s8.6-19.2,19.2-19.2s19.2,8.6,19.2,19.2S967.8,1178.3,957.2,1178.3z
			 M976.3,1081.2c0,10.6-8.6,19.2-19.2,19.2s-19.2-8.6-19.2-19.2v0c0-10.6,8.6-19.2,19.2-19.2S976.3,1070.6,976.3,1081.2
			L976.3,1081.2z M1015.3,1120.2c0,10.6-8.6,19.2-19.2,19.2s-19.2-8.6-19.2-19.2v0c0-10.6,8.6-19.2,19.2-19.2
			S1015.3,1109.6,1015.3,1120.2L1015.3,1120.2z M1035.1,1178.3L1035.1,1178.3c-10.6,0-19.2-8.6-19.2-19.2s8.6-19.2,19.2-19.2h0
			c10.6,0,19.2,8.6,19.2,19.2S1045.7,1178.3,1035.1,1178.3z M1054.3,1081.2c0,10.6-8.6,19.2-19.2,19.2h0c-10.6,0-19.2-8.6-19.2-19.2
			v0c0-10.6,8.6-19.2,19.2-19.2h0C1045.7,1062,1054.3,1070.6,1054.3,1081.2L1054.3,1081.2z M1064.4,1041.4H927.9V904.9h136.4V1041.4
			z M1212.6,1195.2h-136.4v-136.4h136.4V1195.2z"/>
	</g>
</g>
</svg>
