<?xml version="1.0" encoding="utf-8"?>
<!-- Generator: Adobe Illustrator 24.2.1, SVG Export Plug-In . SVG Version: 6.00 Build 0)  -->
<svg version="1.1" id="Layer_1" xmlns="http://www.w3.org/2000/svg" xmlns:xlink="http://www.w3.org/1999/xlink" x="0px" y="0px"
	 viewBox="0 0 696.4 651" style="enable-background:new 0 0 696.4 651;" xml:space="preserve">
<style type="text/css">
	.st0{fill:#FB923A;}
	.st1{fill:#FFFFFF;}
</style>
<g>
	<path class="st0" d="M555.7,592.3H231.8V112.7h312.3c45.5,0,82.3,36.9,82.3,82.3v326.6C626.4,560.7,594.8,592.3,555.7,592.3z"/>
	<path class="st1" d="M231.8,592.3H115.9c-32.4,0-58.7-26.3-58.7-58.7V127.9c0-33.3,27.2-60.5,60.5-60.5h114.1L231.8,592.3
		L231.8,592.3z"/>
	<g>
		<path class="st1" d="M354.5,429L354.5,429c10.6,0,19.2,8.6,19.2,19.2l0,0c0,10.6-8.6,19.2-19.2,19.2l0,0
			c-10.6,0-19.2-8.6-19.2-19.2l0,0C335.3,437.6,343.9,429,354.5,429z"/>
		<g>
			<path class="st1" d="M502.7,327.1L502.7,327.1c-10.6,0-19.2-8.6-19.2-19.2l0,0c0-10.6,8.6-19.2,19.2-19.2l0,0
				c10.6,0,19.2,8.6,19.2,19.2l0,0C521.9,318.5,513.3,327.1,502.7,327.1z"/>
			<g>
				<g>
					<path class="st1" d="M541.7,288.1L541.7,288.1c-10.6,0-19.2-8.6-19.2-19.2l0,0c0-10.6,8.6-19.2,19.2-19.2l0,0
						c10.6,0,19.2,8.6,19.2,19.2l0,0C560.9,279.5,552.3,288.1,541.7,288.1z"/>
					<path class="st1" d="M541.7,366.1L541.7,366.1c-10.6,0-19.2-8.6-19.2-19.2l0,0c0-10.6,8.6-19.2,19.2-19.2l0,0
						c10.6,0,19.2,8.6,19.2,19.2l0,0C560.9,357.5,552.3,366.1,541.7,366.1z"/>
				</g>
				<g>
					<path class="st1" d="M463.7,288.1L463.7,288.1c-10.6,0-19.2-8.6-19.2-19.2l0,0c0-10.6,8.6-19.2,19.2-19.2l0,0
						c10.6,0,19.2,8.6,19.2,19.2l0,0C482.9,279.5,474.3,288.1,463.7,288.1z"/>
					<path class="st1" d="M463.7,366.1L463.7,366.1c-10.6,0-19.2-8.6-19.2-19.2l0,0c0-10.6,8.6-19.2,19.2-19.2l0,0
						c10.6,0,19.2,8.6,19.2,19.2l0,0C482.9,357.5,474.3,366.1,463.7,366.1z"/>
				</g>
			</g>
			<path class="st1" d="M570.9,523.2H434.5V386.8h136.4V523.2z M468.1,489.5h69.2v-69.2h-69.2V489.5z"/>
			<g>
				<g>
					<path class="st1" d="M315.5,468L315.5,468c10.6,0,19.2,8.6,19.2,19.2l0,0c0,10.6-8.6,19.2-19.2,19.2l0,0
						c-10.6,0-19.2-8.6-19.2-19.2l0,0C296.3,476.6,304.9,468,315.5,468z"/>
					<path class="st1" d="M315.5,390L315.5,390c10.6,0,19.2,8.6,19.2,19.2l0,0c0,10.6-8.6,19.2-19.2,19.2l0,0
						c-10.6,0-19.2-8.6-19.2-19.2l0,0C296.3,398.6,304.9,390,315.5,390z"/>
				</g>
				<g>
					<path class="st1" d="M393.4,468L393.4,468c10.6,0,19.2,8.6,19.2,19.2l0,0c0,10.6-8.6,19.2-19.2,19.2l0,0
						c-10.6,0-19.2-8.6-19.2-19.2l0,0C374.3,476.6,382.9,468,393.4,468z"/>
					<path class="st1" d="M393.4,390L393.4,390c10.6,0,19.2,8.6,19.2,19.2l0,0c0,10.6-8.6,19.2-19.2,19.2l0,0
						c-10.6,0-19.2-8.6-19.2-19.2l0,0C374.3,398.6,382.9,390,393.4,390z"/>
				</g>
			</g>
			<path class="st1" d="M422.7,369.4H286.2V232.9h136.4L422.7,369.4L422.7,369.4z M319.9,335.7h69.2v-69.2h-69.2L319.9,335.7
				L319.9,335.7z"/>
		</g>
	</g>
	<polygon class="st1" points="339.9,201.8 270.8,201.8 195.5,67.3 264.7,67.3 	"/>
	<polygon class="st0" points="406.1,201.8 336.9,201.8 261.7,67.3 330.8,67.3 	"/>
	<polygon class="st1" points="472.2,201.8 403.1,201.8 327.8,67.3 397,67.3 	"/>
	<polygon class="st0" points="538.4,201.8 469.2,201.8 394,67.3 463.1,67.3 	"/>
	<polygon class="st1" points="604.5,201.8 535.4,201.8 460.1,67.3 529.3,67.3 	"/>
	<polygon class="st0" points="670.7,201.8 601.5,201.8 526.3,67.3 595.4,67.3 	"/>
</g>
</svg>
