<?xml version="1.0" encoding="utf-8"?>
<!-- Generator: Adobe Illustrator 24.2.1, SVG Export Plug-In . SVG Version: 6.00 Build 0)  -->
<svg version="1.1" id="Layer_1" xmlns="http://www.w3.org/2000/svg" xmlns:xlink="http://www.w3.org/1999/xlink" x="0px" y="0px"
	 viewBox="0 0 2000 2000" style="enable-background:new 0 0 2000 2000;" xml:space="preserve">
<style type="text/css">
	.st0{fill:#FB923A;}
	.st1{fill:#FFFFFF;}
</style>
<g>
	<path class="st0" d="M1197.4,1264.3H873.5V784.7h312.3c45.5,0,82.3,36.9,82.3,82.3v326.6
		C1268.1,1232.7,1236.5,1264.3,1197.4,1264.3z"/>
	<path class="st1" d="M873.5,1264.3H757.6c-32.4,0-58.7-26.3-58.7-58.7V799.9c0-33.3,27.2-60.5,60.5-60.5h114.1V1264.3z"/>
	<g>
		<path class="st1" d="M996.2,1101L996.2,1101c10.6,0,19.2,8.6,19.2,19.2l0,0c0,10.6-8.6,19.2-19.2,19.2h0
			c-10.6,0-19.2-8.6-19.2-19.2l0,0C977,1109.6,985.6,1101,996.2,1101z"/>
		<g>
			<path class="st1" d="M1144.4,999.1L1144.4,999.1c-10.6,0-19.2-8.6-19.2-19.2v0c0-10.6,8.6-19.2,19.2-19.2l0,0
				c10.6,0,19.2,8.6,19.2,19.2v0C1163.6,990.5,1155,999.1,1144.4,999.1z"/>
			<g>
				<g>
					<path class="st1" d="M1183.4,960.1L1183.4,960.1c-10.6,0-19.2-8.6-19.2-19.2l0,0c0-10.6,8.6-19.2,19.2-19.2h0
						c10.6,0,19.2,8.6,19.2,19.2l0,0C1202.6,951.5,1194,960.1,1183.4,960.1z"/>
					<path class="st1" d="M1183.4,1038.1L1183.4,1038.1c-10.6,0-19.2-8.6-19.2-19.2v0c0-10.6,8.6-19.2,19.2-19.2h0
						c10.6,0,19.2,8.6,19.2,19.2v0C1202.6,1029.5,1194,1038.1,1183.4,1038.1z"/>
				</g>
				<g>
					<path class="st1" d="M1105.4,960.1L1105.4,960.1c-10.6,0-19.2-8.6-19.2-19.2l0,0c0-10.6,8.6-19.2,19.2-19.2l0,0
						c10.6,0,19.2,8.6,19.2,19.2l0,0C1124.6,951.5,1116,960.1,1105.4,960.1z"/>
					<path class="st1" d="M1105.4,1038.1L1105.4,1038.1c-10.6,0-19.2-8.6-19.2-19.2v0c0-10.6,8.6-19.2,19.2-19.2l0,0
						c10.6,0,19.2,8.6,19.2,19.2v0C1124.6,1029.5,1116,1038.1,1105.4,1038.1z"/>
				</g>
			</g>
			<path class="st1" d="M1212.6,1195.2h-136.4v-136.4h136.4V1195.2z M1109.8,1161.5h69.2v-69.2h-69.2V1161.5z"/>
			<g>
				<g>
					<path class="st1" d="M957.2,1140L957.2,1140c10.6,0,19.2,8.6,19.2,19.2l0,0c0,10.6-8.6,19.2-19.2,19.2h0
						c-10.6,0-19.2-8.6-19.2-19.2l0,0C938,1148.6,946.6,1140,957.2,1140z"/>
					<path class="st1" d="M957.2,1062L957.2,1062c10.6,0,19.2,8.6,19.2,19.2l0,0c0,10.6-8.6,19.2-19.2,19.2h0
						c-10.6,0-19.2-8.6-19.2-19.2l0,0C938,1070.6,946.6,1062,957.2,1062z"/>
				</g>
				<g>
					<path class="st1" d="M1035.1,1140L1035.1,1140c10.6,0,19.2,8.6,19.2,19.2l0,0c0,10.6-8.6,19.2-19.2,19.2l0,0
						c-10.6,0-19.2-8.6-19.2-19.2l0,0C1016,1148.6,1024.6,1140,1035.1,1140z"/>
					<path class="st1" d="M1035.1,1062L1035.1,1062c10.6,0,19.2,8.6,19.2,19.2l0,0c0,10.6-8.6,19.2-19.2,19.2l0,0
						c-10.6,0-19.2-8.6-19.2-19.2l0,0C1016,1070.6,1024.6,1062,1035.1,1062z"/>
				</g>
			</g>
			<path class="st1" d="M1064.4,1041.4H927.9V904.9h136.4V1041.4z M961.6,1007.7h69.2v-69.2h-69.2V1007.7z"/>
		</g>
	</g>
	<polygon class="st1" points="981.6,873.8 912.5,873.8 837.2,739.3 906.4,739.3 	"/>
	<polygon class="st0" points="1047.8,873.8 978.6,873.8 903.4,739.3 972.5,739.3 	"/>
	<polygon class="st1" points="1113.9,873.8 1044.8,873.8 969.5,739.3 1038.7,739.3 	"/>
	<polygon class="st0" points="1180.1,873.8 1110.9,873.8 1035.7,739.3 1104.8,739.3 	"/>
	<polygon class="st1" points="1246.2,873.8 1177.1,873.8 1101.8,739.3 1171,739.3 	"/>
	<polygon class="st0" points="1312.4,873.8 1243.2,873.8 1168,739.3 1237.1,739.3 	"/>
</g>
</svg>
