<?xml version="1.0" encoding="utf-8"?>
<!-- Generator: Adobe Illustrator 24.2.1, SVG Export Plug-In . SVG Version: 6.00 Build 0)  -->
<svg version="1.1" id="Layer_1" xmlns="http://www.w3.org/2000/svg" xmlns:xlink="http://www.w3.org/1999/xlink" x="0px" y="0px"
	 viewBox="0 0 700.2 632" style="enable-background:new 0 0 700.2 632;" xml:space="preserve">
<style type="text/css">
	.st0{fill:#878686;}
</style>
<g>
	<rect x="454.3" y="406.6" class="st0" width="69.2" height="69.2"/>
	<rect x="306.1" y="252.8" class="st0" width="69.2" height="69.2"/>
	<g>
		<path class="st0" d="M156.5,539.7V53.5h-34.3h-18.3c-33.3,0-60.5,27.2-60.5,60.5v405.7c0,32.4,26.3,58.7,58.7,58.7h65.3
			C160.5,567.2,156.5,553.9,156.5,539.7z"/>
		<path class="st0" d="M581.6,53.5h-66.1L590.7,188h-69.2L446.3,53.5h-63.1L458.4,188h-69.2L314,53.5h-63.1L326.1,188h-69.2
			L189.5,67.5v472.2c0,17.7,11.1,32.8,26.7,38.8h1.8h323.9c39.1,0,70.7-31.7,70.7-70.7V188h44.2L581.6,53.5z M527.9,236L527.9,236
			c10.6,0,19.2,8.6,19.2,19.2c0,10.6-8.6,19.2-19.2,19.2l0,0c-10.6,0-19.2-8.6-19.2-19.2C508.7,244.5,517.3,236,527.9,236z
			 M508.7,333.1c0-10.6,8.6-19.2,19.2-19.2l0,0c10.6,0,19.2,8.6,19.2,19.2l0,0c0,10.6-8.6,19.2-19.2,19.2l0,0
			C517.3,352.3,508.7,343.7,508.7,333.1L508.7,333.1z M469.7,294.1c0-10.6,8.6-19.2,19.2-19.2s19.2,8.6,19.2,19.2l0,0
			c0,10.6-8.6,19.2-19.2,19.2S469.7,304.7,469.7,294.1L469.7,294.1z M449.9,236c10.6,0,19.2,8.6,19.2,19.2
			c0,10.6-8.6,19.2-19.2,19.2s-19.2-8.6-19.2-19.2C430.7,244.5,439.3,236,449.9,236z M430.7,333.1c0-10.6,8.6-19.2,19.2-19.2
			s19.2,8.6,19.2,19.2l0,0c0,10.6-8.6,19.2-19.2,19.2S430.7,343.7,430.7,333.1L430.7,333.1z M301.7,492.5
			c-10.6,0-19.2-8.6-19.2-19.2s8.6-19.2,19.2-19.2s19.2,8.6,19.2,19.2S312.3,492.5,301.7,492.5z M320.8,395.4
			c0,10.6-8.6,19.2-19.2,19.2s-19.2-8.6-19.2-19.2l0,0c0-10.6,8.6-19.2,19.2-19.2S320.8,384.8,320.8,395.4L320.8,395.4z
			 M359.8,434.4c0,10.6-8.6,19.2-19.2,19.2s-19.2-8.6-19.2-19.2l0,0c0-10.6,8.6-19.2,19.2-19.2S359.8,423.8,359.8,434.4L359.8,434.4
			z M379.6,492.5L379.6,492.5c-10.6,0-19.2-8.6-19.2-19.2s8.6-19.2,19.2-19.2l0,0c10.6,0,19.2,8.6,19.2,19.2
			S390.2,492.5,379.6,492.5z M398.8,395.4c0,10.6-8.6,19.2-19.2,19.2l0,0c-10.6,0-19.2-8.6-19.2-19.2l0,0c0-10.6,8.6-19.2,19.2-19.2
			l0,0C390.2,376.2,398.8,384.8,398.8,395.4L398.8,395.4z M408.9,355.6H272.4V219.1h136.4L408.9,355.6L408.9,355.6z M557.1,509.4
			H420.7V373h136.4V509.4z"/>
	</g>
</g>
</svg>
